<svg xmlns="http://www.w3.org/2000/svg" width="100" height="125" viewBox="0 0 100 125" fill="none">
    <path d="M50.3 110.697C57.2752 110.697 63.9647 107.926 68.8969 102.994C73.8291 98.062 76.6 91.3725 76.6 84.3973V32.2973C76.2453 27.328 74.021 22.6776 70.3749 19.2826C66.7289 15.8876 61.932 14 56.95 14C51.968 14 47.1711 15.8876 43.5251 19.2826C39.879 22.6776 37.6547 27.328 37.3 32.2973V75.6973C37.3 79.1451 38.6696 82.4517 41.1076 84.8897C43.5456 87.3277 46.8522 88.6973 50.3 88.6973C53.7478 88.6973 57.0544 87.3277 59.4924 84.8897C61.9304 82.4517 63.3 79.1451 63.3 75.6973V49.6973H55.3V75.6973C55.3 77.0234 54.7732 78.2952 53.8355 79.2329C52.8979 80.1705 51.6261 80.6973 50.3 80.6973C48.9739 80.6973 47.7021 80.1705 46.7645 79.2329C45.8268 78.2952 45.3 77.0234 45.3 75.6973V32.2973C45.5693 29.3938 46.9131 26.6955 49.0681 24.7311C51.2231 22.7667 54.034 21.6778 56.95 21.6778C59.866 21.6778 62.6769 22.7667 64.8319 24.7311C66.9869 26.6955 68.3307 29.3938 68.6 32.2973V84.3973C68.6 89.2508 66.672 93.9055 63.2401 97.3374C59.8081 100.769 55.1535 102.697 50.3 102.697C45.4465 102.697 40.7919 100.769 37.3599 97.3374C33.928 93.9055 32 89.2508 32 84.3973V49.6973H24V84.3973C24 91.3725 26.7709 98.062 31.7031 102.994C34.1453 105.436 37.0446 107.374 40.2354 108.695C43.4263 110.017 46.8462 110.697 50.3 110.697V110.697Z" fill="black"/>
</svg>
