<svg
        width="32"
        height="32"
        viewBox="0 0 32 32"
        fill="none"
        xmlns="http://www.w3.org/2000/svg"
>
    <g clipPath="url(#clip0_72_45)">
        <path
                d="M9.33332 32C10.8061 32 12 30.8061 12 29.3334C12 27.8606 10.8061 26.6667 9.33332 26.6667C7.86056 26.6667 6.66666 27.8606 6.66666 29.3334C6.66666 30.8061 7.86056 32 9.33332 32Z"
                fill="black"
        />
        <path
                d="M22.6667 32C24.1394 32 25.3333 30.8061 25.3333 29.3334C25.3333 27.8606 24.1394 26.6667 22.6667 26.6667C21.1939 26.6667 20 27.8606 20 29.3334C20 30.8061 21.1939 32 22.6667 32Z"
                fill="black"
        />
        <path
                d="M30.6667 4H28V1.33333C28 0.979711 27.8595 0.640573 27.6095 0.390524C27.3594 0.140476 27.0203 0 26.6667 0C26.3131 0 25.9739 0.140476 25.7239 0.390524C25.4738 0.640573 25.3333 0.979711 25.3333 1.33333V4H22.6667C22.3131 4 21.9739 4.14048 21.7239 4.39052C21.4738 4.64057 21.3333 4.97971 21.3333 5.33333C21.3333 5.68696 21.4738 6.02609 21.7239 6.27614C21.9739 6.52619 22.3131 6.66667 22.6667 6.66667H25.3333V9.33333C25.3333 9.68696 25.4738 10.0261 25.7239 10.2761C25.9739 10.5262 26.3131 10.6667 26.6667 10.6667C27.0203 10.6667 27.3594 10.5262 27.6095 10.2761C27.8595 10.0261 28 9.68696 28 9.33333V6.66667H30.6667C31.0203 6.66667 31.3594 6.52619 31.6095 6.27614C31.8595 6.02609 32 5.68696 32 5.33333C32 4.97971 31.8595 4.64057 31.6095 4.39052C31.3594 4.14048 31.0203 4 30.6667 4Z"
                fill="black"
        />
        <path
                d="M29.028 12.968C28.8556 12.9357 28.6785 12.938 28.507 12.9747C28.3355 13.0114 28.173 13.0818 28.0289 13.1817C27.8848 13.2817 27.7619 13.4093 27.6675 13.557C27.573 13.7048 27.5088 13.8699 27.4787 14.0427C27.3124 14.9655 26.8271 15.8007 26.1077 16.4021C25.3883 17.0036 24.4804 17.3332 23.5427 17.3333H7.224L5.97067 6.66667H17.3333C17.687 6.66667 18.0261 6.52619 18.2761 6.27614C18.5262 6.02609 18.6667 5.68695 18.6667 5.33333C18.6667 4.97971 18.5262 4.64057 18.2761 4.39052C18.0261 4.14048 17.687 4 17.3333 4H5.656L5.6 3.53067C5.4851 2.55813 5.01741 1.66154 4.28558 1.01081C3.55375 0.360072 2.60863 0.000417115 1.62933 0L1.33333 0C0.979711 0 0.640573 0.140476 0.390524 0.390524C0.140476 0.640573 0 0.979711 0 1.33333C0 1.68696 0.140476 2.02609 0.390524 2.27614C0.640573 2.52619 0.979711 2.66667 1.33333 2.66667H1.62933C1.95591 2.66671 2.27112 2.78661 2.51516 3.00362C2.75921 3.22063 2.91512 3.51966 2.95333 3.844L4.788 19.444C4.97847 21.0664 5.75797 22.5624 6.97854 23.648C8.19912 24.7336 9.77581 25.3334 11.4093 25.3333H25.3333C25.687 25.3333 26.0261 25.1929 26.2761 24.9428C26.5262 24.6928 26.6667 24.3536 26.6667 24C26.6667 23.6464 26.5262 23.3072 26.2761 23.0572C26.0261 22.8071 25.687 22.6667 25.3333 22.6667H11.4093C10.582 22.6668 9.77502 22.4105 9.09948 21.9329C8.42394 21.4553 7.9131 20.78 7.63733 20H23.5427C25.1055 20.0002 26.6188 19.4512 27.8181 18.4491C29.0173 17.447 29.8264 16.0553 30.104 14.5173C30.1351 14.3449 30.132 14.1681 30.0948 13.9969C30.0576 13.8258 29.987 13.6636 29.887 13.5197C29.7871 13.3758 29.6598 13.253 29.5124 13.1584C29.365 13.0637 29.2004 12.999 29.028 12.968Z"
                fill="black"
        />
    </g>
    <defs>
        <clipPath id="clip0_72_45">
            <rect width="32" height="32" fill="white"/>
        </clipPath>
    </defs>
</svg>