<svg
        width="44"
        height="44"
        viewBox="0 0 44 44"
        fill="none"
        xmlns="http://www.w3.org/2000/svg"
>
    <g clipPath="url(#clip0_18_47)">
        <path
                d="M44 44H22.033C17.7411 43.998 13.5436 42.7406 9.95741 40.3828C6.37121 38.025 3.55298 34.6697 1.84984 30.7303C0.146705 26.7908 -0.366956 22.4392 0.372129 18.2115C1.11121 13.9837 3.07076 10.0645 6.00942 6.9365C8.94808 3.8085 12.7375 1.60837 16.9109 0.607087C21.0843 -0.394195 25.4595 -0.152892 29.4975 1.30127C33.5355 2.75544 37.06 5.35895 39.6368 8.79114C42.2137 12.2233 43.7303 16.3343 44 20.6177V20.7332V44ZM22.033 3.66667C17.1707 3.66667 12.5075 5.59821 9.06937 9.03638C5.63121 12.4745 3.69966 17.1377 3.69966 22C3.69966 26.8623 5.63121 31.5255 9.06937 34.9636C12.5075 38.4018 17.1707 40.3333 22.033 40.3333H40.3333V20.7918C40.019 16.1504 37.955 11.8012 34.5582 8.62259C31.1615 5.44396 26.685 3.67275 22.033 3.66667Z"
                fill="black"
        />
        <path
                d="M23.8333 12.8333H12.8333V16.5H23.8333V12.8333Z"
                fill="black"
        />
        <path
                d="M31.1667 20.1667H12.8333V23.8333H31.1667V20.1667Z"
                fill="black"
        />
        <path
                d="M31.1667 27.5H12.8333V31.1667H31.1667V27.5Z"
                fill="black"
        />
    </g>
    <defs>
        <clipPath id="clip0_18_47">
            <rect width="44" height="44" fill="white" />
        </clipPath>
    </defs>
</svg>