<svg
        width="43"
        height="43"
        viewBox="0 0 43 43"
        fill="none"
        xmlns="http://www.w3.org/2000/svg"
>
    <g>
        <path
                d="M16.125 21.5C18.2512 21.5 20.3296 20.8695 22.0974 19.6883C23.8652 18.5071 25.2431 16.8282 26.0567 14.8639C26.8703 12.8995 27.0832 10.7381 26.6684 8.65279C26.2537 6.56749 25.2298 4.65202 23.7264 3.14861C22.223 1.64519 20.3075 0.621354 18.2222 0.206563C16.1369 -0.208228 13.9755 0.00465782 12.0112 0.8183C10.0468 1.63194 8.36793 3.0098 7.1867 4.77762C6.00548 6.54545 5.375 8.62386 5.375 10.75C5.37785 13.6002 6.51135 16.3329 8.52675 18.3483C10.5421 20.3637 13.2748 21.4972 16.125 21.5ZM16.125 3.58334C17.5424 3.58334 18.928 4.00366 20.1066 4.79114C21.2851 5.57862 22.2037 6.6979 22.7461 8.00744C23.2886 9.31698 23.4305 10.758 23.154 12.1482C22.8774 13.5384 22.1949 14.8153 21.1926 15.8176C20.1903 16.8199 18.9133 17.5024 17.5231 17.779C16.133 18.0555 14.692 17.9136 13.3824 17.3711C12.0729 16.8287 10.9536 15.9101 10.1661 14.7316C9.37865 13.553 8.95833 12.1674 8.95833 10.75C8.95833 8.84929 9.71339 7.02642 11.0574 5.68241C12.4014 4.3384 14.2243 3.58334 16.125 3.58334Z"
                fill="black"
        />
        <path
                d="M16.125 25.0833C11.85 25.0886 7.75156 26.7891 4.72866 29.812C1.70577 32.8349 0.00521546 36.9333 0 41.2083C0 41.6835 0.188764 42.1392 0.524767 42.4752C0.86077 42.8112 1.31649 43 1.79167 43C2.26685 43 2.72256 42.8112 3.05857 42.4752C3.39457 42.1392 3.58333 41.6835 3.58333 41.2083C3.58333 37.8821 4.90468 34.6921 7.2567 32.34C9.60872 29.988 12.7987 28.6667 16.125 28.6667C19.4513 28.6667 22.6413 29.988 24.9933 32.34C27.3453 34.6921 28.6667 37.8821 28.6667 41.2083C28.6667 41.6835 28.8554 42.1392 29.1914 42.4752C29.5274 42.8112 29.9832 43 30.4583 43C30.9335 43 31.3892 42.8112 31.7252 42.4752C32.0612 42.1392 32.25 41.6835 32.25 41.2083C32.2448 36.9333 30.5442 32.8349 27.5213 29.812C24.4984 26.7891 20.4 25.0886 16.125 25.0833Z"
                fill="black"
        />
        <path
                d="M39.4167 14.1094C38.4196 14.159 37.4827 14.6017 36.8112 15.3404C36.1396 16.0791 35.788 17.0537 35.8333 18.051C35.8786 17.0537 35.527 16.0791 34.8555 15.3404C34.1839 14.6017 33.2471 14.159 32.25 14.1094C31.2529 14.159 30.3161 14.6017 29.6445 15.3404C28.973 16.0791 28.6214 17.0537 28.6667 18.051C28.6667 21.1506 32.7087 24.7823 34.7225 26.3984C35.0377 26.6508 35.4295 26.7883 35.8333 26.7883C36.2372 26.7883 36.6289 26.6508 36.9442 26.3984C38.958 24.7859 43 21.1506 43 18.051C43.0453 17.0537 42.6937 16.0791 42.0222 15.3404C41.3506 14.6017 40.4138 14.159 39.4167 14.1094Z"
                fill="black"
        />
    </g>
    <defs>
        <clipPath id="clip0_19_54">
            <rect width="43" height="43" fill="white" />
        </clipPath>
    </defs>
</svg>