<svg
        width="32"
        height="32"
        viewBox="0 0 32 32"
        fill="none"
        xmlns="http://www.w3.org/2000/svg"
>
    <g clipPath="url(#clip0_72_40)">
        <path
                d="M28 32H24V25.3334C24 24.6261 23.719 23.9478 23.219 23.4477C22.7189 22.9476 22.0406 22.6667 21.3333 22.6667H10.6667C9.95942 22.6667 9.28115 22.9476 8.78105 23.4477C8.28095 23.9478 8 24.6261 8 25.3334V32H4V25.3334C4.00212 23.5659 4.70518 21.8714 5.95496 20.6216C7.20474 19.3719 8.89921 18.6688 10.6667 18.6667H21.3333C23.1008 18.6688 24.7953 19.3719 26.045 20.6216C27.2948 21.8714 27.9979 23.5659 28 25.3334V32Z"
                fill="black"
        />
        <path
                d="M16 16C14.4178 16 12.871 15.5308 11.5554 14.6518C10.2398 13.7727 9.21447 12.5233 8.60897 11.0615C8.00347 9.59966 7.84504 7.99113 8.15372 6.43928C8.4624 4.88743 9.22433 3.46197 10.3431 2.34315C11.462 1.22433 12.8874 0.462403 14.4393 0.153721C15.9911 -0.15496 17.5997 0.00346629 19.0615 0.608967C20.5233 1.21447 21.7727 2.23985 22.6518 3.55544C23.5308 4.87104 24 6.41775 24 8C23.9979 10.1211 23.1544 12.1547 21.6545 13.6545C20.1547 15.1544 18.1211 15.9979 16 16ZM16 4C15.2089 4 14.4355 4.2346 13.7777 4.67413C13.1199 5.11365 12.6072 5.73837 12.3045 6.46927C12.0017 7.20017 11.9225 8.00444 12.0769 8.78036C12.2312 9.55629 12.6122 10.269 13.1716 10.8284C13.731 11.3878 14.4437 11.7688 15.2196 11.9231C15.9956 12.0775 16.7998 11.9983 17.5307 11.6955C18.2616 11.3928 18.8864 10.8801 19.3259 10.2223C19.7654 9.56449 20 8.79113 20 8C20 6.93914 19.5786 5.92172 18.8284 5.17158C18.0783 4.42143 17.0609 4 16 4Z"
                fill="black"
        />
    </g>
    <defs>
        <clipPath id="clip0_72_40">
            <rect width="32" height="32" fill="white"/>
        </clipPath>
    </defs>
</svg>