<svg
        width="32"
        height="32"
        viewBox="0 0 32 32"
        fill="none"
        xmlns="http://www.w3.org/2000/svg"
>
    <g clipPath="url(#clip0_72_43)">
        <path
                d="M25.2 22.368C27.3287 19.5232 28.3007 15.9777 27.9204 12.445C27.5401 8.91239 25.8356 5.65496 23.1502 3.32847C20.4648 1.00198 16.9977 -0.220848 13.4469 -0.0938581C9.89612 0.0331322 6.52526 1.50051 4.01287 4.0129C1.50048 6.52529 0.0331017 9.89615 -0.0938886 13.4469C-0.220879 16.9977 1.00195 20.4648 3.32844 23.1502C5.65493 25.8357 8.91236 27.5401 12.445 27.9204C15.9776 28.3008 19.5232 27.3287 22.368 25.2L29.168 32L32 29.1733L25.2 22.368ZM14 24C12.0222 24 10.0888 23.4135 8.44428 22.3147C6.79979 21.2159 5.51807 19.6541 4.76119 17.8269C4.00431 15.9996 3.80628 13.9889 4.19213 12.0491C4.57798 10.1093 5.53039 8.32747 6.92892 6.92895C8.32744 5.53042 10.1093 4.57801 12.0491 4.19216C13.9889 3.80631 15.9996 4.00434 17.8268 4.76122C19.6541 5.5181 21.2159 6.79982 22.3147 8.44431C23.4135 10.0888 24 12.0222 24 14C23.9975 16.6514 22.9432 19.1935 21.0683 21.0684C19.1935 22.9432 16.6514 23.9975 14 24Z"
                fill="black"
        />
    </g>
    <defs>
        <clipPath id="clip0_72_43">
            <rect width="32" height="32" fill="white"/>
        </clipPath>
    </defs>
</svg>