<svg
        width="41"
        height="41"
        viewBox="0 0 41 41"
        fill="none"
        xmlns="http://www.w3.org/2000/svg"
>
    <path
            d="M40.7199 15.0231C40.3704 13.9108 39.6723 12.9405 38.7287 12.2556C37.7851 11.5708 36.6462 11.2078 35.4804 11.2203H28.0167L25.7497 4.15466C25.3932 3.04246 24.6927 2.07223 23.7492 1.38385C22.8057 0.695484 21.668 0.324554 20.5 0.324554C19.3321 0.324554 18.1943 0.695484 17.2508 1.38385C16.3073 2.07223 15.6068 3.04246 15.2503 4.15466L12.9834 11.2203H5.51965C4.35754 11.222 3.22568 11.5908 2.28574 12.2742C1.34579 12.9576 0.645844 13.9205 0.285865 15.0254C-0.0741138 16.1304 -0.0757071 17.3208 0.281313 18.4267C0.638332 19.5326 1.3357 20.4974 2.27382 21.1833L8.34865 25.625L6.03898 32.7778C5.66573 33.8872 5.661 35.0875 6.0255 36.1997C6.39 37.312 7.10421 38.2767 8.06165 38.95C9.00269 39.6449 10.1431 40.0172 11.3129 40.0113C12.4827 40.0055 13.6193 39.6218 14.5533 38.9175L20.5 34.5408L26.4484 38.9124C27.3878 39.6033 28.522 39.9786 29.6881 39.9843C30.8541 39.99 31.992 39.6258 32.938 38.944C33.884 38.2623 34.5895 37.2981 34.953 36.1901C35.3165 35.0822 35.3193 33.8875 34.9611 32.7778L32.6514 25.625L38.7331 21.1833C39.6819 20.5061 40.3875 19.5413 40.7453 18.4318C41.1031 17.3223 41.0942 16.1271 40.7199 15.0231ZM36.7172 18.4244L29.6379 23.5989C29.3471 23.811 29.1308 24.1096 29.0197 24.4519C28.9087 24.7943 28.9086 25.163 29.0195 25.5054L31.7101 33.825C31.8463 34.247 31.8451 34.7012 31.7068 35.1225C31.5685 35.5438 31.3002 35.9103 30.9404 36.1695C30.5806 36.4286 30.1479 36.567 29.7045 36.5647C29.2612 36.5625 28.8299 36.4197 28.4728 36.1569L21.5114 31.0319C21.2181 30.8165 20.8638 30.7003 20.5 30.7003C20.1362 30.7003 19.7819 30.8165 19.4887 31.0319L12.5272 36.1569C12.1703 36.4232 11.7379 36.569 11.2926 36.573C10.8472 36.5771 10.4122 36.4392 10.0505 36.1793C9.68887 35.9195 9.41934 35.5512 9.28105 35.1279C9.14276 34.7046 9.14288 34.2482 9.2814 33.825L11.9806 25.5054C12.0915 25.163 12.0914 24.7943 11.9803 24.4519C11.8693 24.1096 11.6529 23.811 11.3621 23.5989L4.28282 18.4244C3.92629 18.1633 3.66138 17.7963 3.52592 17.3757C3.39047 16.9551 3.39139 16.5025 3.52856 16.0824C3.66573 15.6624 3.93214 15.2964 4.28972 15.0368C4.6473 14.7772 5.07778 14.6373 5.51965 14.637H14.2321C14.5938 14.637 14.9462 14.5222 15.2384 14.3091C15.5307 14.0961 15.7478 13.7957 15.8585 13.4514L18.5064 5.19845C18.6423 4.77613 18.9087 4.40782 19.2673 4.14654C19.6259 3.88527 20.0581 3.7445 20.5017 3.7445C20.9454 3.7445 21.3776 3.88527 21.7362 4.14654C22.0947 4.40782 22.3611 4.77613 22.4971 5.19845L25.145 13.4514C25.2557 13.7957 25.4728 14.0961 25.765 14.3091C26.0573 14.5222 26.4096 14.637 26.7713 14.637H35.4838C35.9257 14.6373 36.3562 14.7772 36.7137 15.0368C37.0713 15.2964 37.3377 15.6624 37.4749 16.0824C37.6121 16.5025 37.613 16.9551 37.4775 17.3757C37.3421 17.7963 37.0772 18.1633 36.7206 18.4244H36.7172Z"
            fill="black"
    />
</svg>